<svg xmlns="http://www.w3.org/2000/svg" width="256" height="256"><path fill-opacity=".047" d="M0 128.004v128.004l128.25-.254 128.25-.254.254-127.75L257.008 0H0v128.004m.485.496c0 70.4.119 99.053.265 63.672.146-35.38.146-92.98 0-128C.604 29.153.485 58.1.485 128.5" fill="#1976D2" fill-rule="evenodd"/><path fill-opacity=".239" d="M121.113 22.853l-7.337 13.853-5.388.977c-2.963.537-5.388.81-5.388.607 0-.203.909-2.152 2.02-4.33 2.385-4.675 2.025-4.806-6.876-2.495-28.192 7.32-53.88 29.012-68.109 57.515-5.134 10.284-8.441 19.301-7.794 21.244.223.669 2.203 1.68 4.4 2.246l3.994 1.03-1.068 4.559-1.067 4.56L15 118.86c-7.425-2.067-13.941-3.634-14.481-3.482-.54.152 5.415 3.616 13.233 7.699l14.214 7.423.017 5.25c.009 2.887-.32 5.247-.733 5.243-.413-.003-2.1-.9-3.75-1.993-5.428-3.595-5.874-3.012-5.157 6.75 3.582 48.816 38.146 88.464 85.682 98.284 19.301 3.988 42.304 2.778 61.401-3.231 7.909-2.488 26.736-11.719 27.273-13.371.19-.588-1.897-2.12-4.64-3.404-2.743-1.285-4.798-2.642-4.567-3.016.231-.373 2.148-1.876 4.259-3.339l3.838-2.66 31.775 16.091c17.476 8.85 31.936 15.929 32.133 15.733.196-.197-7.715-15.52-17.58-34.051l-17.938-33.693 1.661-4.296c.913-2.363 1.949-4.63 2.301-5.037.352-.407 1.971 1.728 3.599 4.746 1.628 3.018 3.241 5.489 3.584 5.491 1.232.006 6.749-18.667 7.928-26.833 1.816-12.581.747-32.438-2.393-44.441-9.419-36.006-32.909-60.553-71.865-75.099-5.339-1.993-10.595-3.624-11.68-3.624-1.874 0-1.842.235.633 4.663l2.606 4.663-2.427-.664c-1.334-.365-4.078-.94-6.098-1.278-3.552-.595-3.911-1.067-11-14.489-4.03-7.63-7.564-13.878-7.852-13.884-.289-.006-3.827 6.223-7.863 13.842m-7.903 19.194c-8.41 15.957-14.978 29.519-14.596 30.138.382.618.28.868-.226.555-.507-.314-3.078 3.442-5.714 8.345C90.038 85.988 88.107 90 88.382 90c.275 0 1.941-2.702 3.701-6.005 2.162-4.056 3.56-5.712 4.309-5.103 1.131.92 22.098.951 23.016.034.278-.278-3.863-.438-9.202-.355C99.611 78.735 96 78.294 96 76.833c0-.523.454-.67 1.009-.327 1.38.852 22.523.901 23.892.055 1.377-.851 1.399.009.064 2.505-.57 1.064-.799 1.934-.51 1.934.289 0 2.715-4.361 5.391-9.691l4.865-9.691 4.58 7.941c5.058 8.769 7.429 12.378 5.63 8.57-.907-1.918-.866-2.213.214-1.546 1.499.927 18.308.879 19.822-.056.536-.332 2.347 2.114 4.024 5.435 1.676 3.321 3.299 6.038 3.606 6.038.307 0-1.591-4.02-4.216-8.934-2.626-4.914-5.083-8.744-5.46-8.511-.377.233-.623-.208-.548-.981.141-1.441-28.463-56.508-29.363-56.529-.275-.006-7.381 13.044-15.79 29.002M94 34.855c-29.334 9.587-53.502 32.501-65.786 62.374-5.303 12.896-5.447 12.417 2.519 8.405 6.049-3.046 7.046-3.95 8.06-7.305.636-2.106 3.136-7.294 5.556-11.53C53.7 70.434 65.78 58.312 79.484 51.54c6.181-3.054 10.707-6.58 23.966-18.674 1.519-1.385-.297-1.003-9.45 1.989m61-2.312c0 1.649 15.191 14.365 22.176 18.562 20.403 12.261 34.34 25.887 41.318 40.395 7.306 15.191 9.595 28.431 9.508 55-.035 10.922.441 19.324 1.333 23.5 1.383 6.471 1.394 6.486 2.6 3.5 4.951-12.269 7.371-37.142 5.115-52.573-6.043-41.323-30.686-69.988-73.8-85.843-4.537-1.668-8.25-2.812-8.25-2.541m-9.478 46.422c-.191.309 3.196.652 7.528.763 4.332.11 8.074-.121 8.316-.514.242-.393-3.146-.736-7.528-.763-4.383-.027-8.125.204-8.316.514M40 128.25c.781.852 33.301 12.782 33.715 12.368.202-.202-1.507-1.118-3.798-2.035-5.214-2.086-4.525-3.093 1.083-1.583 2.311.622 4.377.956 4.591.742.214-.214-6.919-2.339-15.851-4.722-20.367-5.433-20.343-5.427-19.74-4.77m37.813 10.433c.721.289 1.584.253 1.916-.079.332-.332-.258-.568-1.312-.525-1.165.048-1.402.285-.604.604M20.391 146.5c3.885 38.549 24.847 70.03 57.609 86.515C93.363 240.745 108.326 244 128.5 244c21.009 0 35.664-3.366 53.434-12.273l8.434-4.227-8.417-.294c-6.634-.232-10.328.245-17.434 2.25-35.792 10.099-68.599 6.34-94.017-10.772-7.928-5.337-19.644-16.685-25.128-24.338C37.909 183.932 32 168.53 32 159.49c0-3.635-2.635-8.177-9.856-16.99l-2.458-3 .705 7" fill="#1976D2" fill-rule="evenodd"/><path fill-opacity=".378" d="M121.366 22.791l-7.135 13.647-4.865 1.262c-7.515 1.948-7.742 1.797-4.813-3.2 3.091-5.275 2.913-5.333-7.506-2.446-31.058 8.607-57.489 33.067-70.916 65.628-1.606 3.895-3.215 8.426-3.576 10.069-.631 2.874-.481 3.03 3.987 4.155 3.528.889 4.501 1.54 4.051 2.713-.326.85-.6 2.52-.608 3.713-.033 4.581-.904 4.646-14.387 1.06-7.092-1.886-13.031-3.292-13.2-3.124-.168.168 5.524 3.416 12.648 7.218L28 130.399v5.301c0 2.915-.243 5.3-.54 5.3-.297 0-2.365-.931-4.597-2.07-2.231-1.138-4.319-1.808-4.639-1.488-1.077 1.078 1.847 21.576 4.33 30.355 3.491 12.342 12.098 29.184 19.824 38.791 14.47 17.994 36.52 31.585 60.122 37.057 6.381 1.48 11.845 1.84 27 1.783 17.372-.067 19.857-.304 29-2.771 5.817-1.57 15.142-5.239 22.294-8.772 13.366-6.603 13.627-7.039 6.212-10.382-2.203-.994-3.989-2.076-3.968-2.405.021-.329 1.933-1.919 4.25-3.533l4.212-2.935 31.75 16.169c17.463 8.892 31.75 15.835 31.75 15.428 0-.407-7.875-15.539-17.5-33.627S220 179.387 220 178.989c0-.397.981-3.082 2.179-5.966l2.179-5.244 2.837 5.611c1.56 3.085 3.259 5.61 3.774 5.61 1.547 0 6.735-17.843 8.07-27.759 4.453-33.063-7.654-69.373-30.308-90.892-9.019-8.567-16.252-13.585-28.302-19.635-9.874-4.958-27.132-11.344-28.084-10.393-.326.327.381 2.245 1.572 4.262 1.19 2.018 1.94 3.894 1.665 4.168-.274.274-3.035-.12-6.136-.876l-5.637-1.375-6.928-12.974c-3.811-7.135-7.255-13.291-7.655-13.678-.399-.387-3.937 5.437-7.86 12.943m1.058 1.028c-5.283 10.158-41.771 79.479-49.373 93.8l-2.717 5.12 13.083 3.541c7.196 1.947 13.141 3.469 13.213 3.38.071-.088 7.647-14.898 16.834-32.91 9.188-18.013 17.004-32.748 17.37-32.745.366.002 16.535 28.273 35.93 62.824l35.265 62.82 14.074 14.925c14.575 15.457 22.18 23.148 20.026 20.255-1.075-1.445-.965-1.599.814-1.134 1.326.347 2.071.053 2.097-.828.022-.752.711-.13 1.532 1.383 2.103 3.876 2.829 3.438.829-.5-2.503-4.93-71.128-134.417-92.613-174.75-10.401-19.525-19.221-35.806-19.599-36.181-.379-.375-3.423 4.575-6.765 11M92.726 35.012C82.545 38.46 77.969 40.668 69 46.461 51.557 57.728 35.986 77.245 27.345 98.675c-1.84 4.563-3.345 8.922-3.345 9.687 0 1.531 16.03 6.057 17.129 4.837.346-.385 1.196-2.499 1.888-4.699 1.943-6.172 7.761-17.358 12.516-24.062C62.107 75.17 75.389 63.174 84.805 58l8.19-4.5 5.543-10.75c3.37-6.533 5.038-10.742 4.253-10.729-.71.011-5.239 1.357-10.065 2.991M155 32.63c0 .315 2.516 5.264 5.592 10.998 4.82 8.986 6.166 10.717 9.75 12.539 22.108 11.241 39.265 32.78 46.243 58.054 2.093 7.58 2.661 12.299 3.1 25.779l.538 16.5 5.036 9.718c2.769 5.345 5.405 9.489 5.858 9.21 1.091-.675 4.466-12.298 5.931-20.428 1.677-9.307 1.467-28.03-.428-38.071-7.509-39.793-32.113-67.408-72.87-81.786-4.812-1.698-8.75-2.829-8.75-2.513M27.088 124.38c.323.346 3.698 1.706 7.5 3.023 3.801 1.317 30.087 11.032 58.412 21.59C149.134 169.914 184.834 183 185.779 183c.332 0-.27-.676-1.338-1.502-1.912-1.481-1.911-1.494.059-.915 1.1.324-3.85-3.283-11-8.015-24.213-16.024-23.81-15.838-48.5-22.423-45.475-12.13-94.555-25.262-96.5-25.82-1.1-.315-1.736-.291-1.412.055M20 144.041c0 2.606.693 8.389 1.539 12.851 8.464 44.619 40.303 77.075 84.135 85.765 12.09 2.397 34.79 2.354 46.326-.087 12.538-2.653 28.987-9.08 36.845-14.395.976-.661-1.042-2.211-7.378-5.664l-8.722-4.755-10.622 2.587c-33.516 8.163-62.982 5.359-83.939-7.985-18.307-11.658-31.281-30.96-37.788-56.218l-1.877-7.288-9.259-4.774-9.26-4.774v4.737" fill="#1976D2" fill-rule="evenodd"/><path fill-opacity=".826" d="M126.177 14.573c-1.222 2.515-1.82 4.325-1.33 4.021.491-.303 1.456-1.911 2.144-3.573.688-1.661 1.535-3.013 1.88-3.003.346.011 4.398 7.098 9.005 15.75 20.806 39.078 84.31 158.579 98.589 185.523 8.683 16.384 15.618 29.922 15.411 30.083-.207.162-17.251-8.299-37.876-18.802a331430.155 331430.155 0 00-73.216-37.271l-35.716-18.175-5.17 9.687a3395.631 3395.631 0 01-9.108 16.945l-3.939 7.258-6.061-4.758c-10.621-8.338-20.671-23.096-25.258-37.09-1.709-5.216-1.7-5.454.415-10.982 1.189-3.107 1.8-5.778 1.358-5.935-2.507-.891-45.463-24.286-43.805-23.858 8.02 2.071 11.635 2.806 12 2.441.232-.233-4.735-1.792-11.039-3.465C8.158 117.697 3 116.445 3 116.588c0 .144 5.85 3.322 13 7.064l13 6.804v5.772c0 3.175-.243 5.772-.54 5.772-.297 0-2.365-.931-4.597-2.07-2.231-1.138-4.225-1.901-4.431-1.696-.205.206 4.064 2.558 9.487 5.226l9.86 4.852 2.144 8.094c8.243 31.12 25.942 52.858 50.592 62.136 11.58 4.359 19.872 5.718 34.985 5.736 14.701.018 27.139-1.687 38.974-5.343l6.499-2.007 8.994 4.786c4.946 2.632 8.858 5.22 8.692 5.75-.166.531-3.42 2.709-7.23 4.841-3.811 2.132-6.029 3.584-4.929 3.226 3.222-1.047 14.5-7.56 14.5-8.373 0-.409-2.312-1.876-5.137-3.259l-5.136-2.515 4.886-3.558 4.887-3.558 31.307 15.976c17.218 8.787 31.448 15.814 31.622 15.616.174-.198-7.663-15.335-17.416-33.637l-17.732-33.278 2.109-5.455c1.161-3.001 2.392-5.464 2.737-5.473.345-.009 1.92 2.461 3.5 5.489 2.539 4.866 3.018 5.309 4.123 3.809.688-.933 1.236-2.174 1.22-2.756-.017-.583-.519-.218-1.116.809-.941 1.619-1.879.419-7.037-9l-5.951-10.868.617-7.5c.702-8.522-.695-23.665-2.987-32.398-6.627-25.249-22.94-46.508-44.546-58.052-5.989-3.2-6.322-3.597-12.1-14.42-3.267-6.122-5.541-11.13-5.052-11.13.489 0 3.508.901 6.71 2.003 3.201 1.101 6 1.822 6.22 1.602.22-.22-2.666-1.412-6.414-2.649-3.748-1.237-7.416-2.471-8.152-2.743-.841-.311-.37 1.416 1.267 4.646 1.432 2.828 2.26 5.125 1.838 5.105-1.329-.061-12.454-2.815-12.717-3.147-.138-.174-3.356-6.274-7.15-13.554-3.795-7.28-7.148-13.242-7.451-13.25-.303-.007-1.55 2.045-2.772 4.56m-7.139 13.351c-2.191 4.359-4.559 8.295-5.261 8.747-1.388.893-11.777 3.194-11.777 2.608 0-.197.931-2.184 2.07-4.416 1.138-2.231 1.894-4.232 1.679-4.447-.214-.215-2.983 4.821-6.153 11.191-4.368 8.78-6.495 11.982-8.79 13.237-13.88 7.589-23.765 15.618-32.022 26.008-5.854 7.367-13.327 20.938-15.776 28.648-.699 2.2-1.433 4.289-1.632 4.643-.199.353-4.64-.61-9.869-2.141-5.229-1.53-9.507-2.422-9.507-1.98 0 .441 1.798 1.106 3.995 1.477s4.22 1.039 4.495 1.485c1.032 1.67-.755 9.921-2.215 10.218-.806.164 25.18 7.407 57.748 16.096 32.567 8.69 59.418 15.594 59.668 15.344.427-.427-3.637-7.968-12.971-24.069l-4.015-6.927-3.333 6.61-3.332 6.61-8.77-2.335c-4.824-1.285-16.195-4.237-25.27-6.562-9.075-2.324-16.83-4.521-17.234-4.881-.623-.557 12.103-25.205 46.645-90.338 3.718-7.012 6.502-12.75 6.186-12.75-.316 0-2.368 3.566-4.559 7.924m-18.225 3.759c.721.289 1.584.253 1.916-.079.332-.332-.258-.568-1.312-.525-1.165.048-1.402.285-.604.604m-8.625 2c-2.372.839-4.136 1.702-3.92 1.918.216.216 2.831-.473 5.812-1.531 2.981-1.058 4.745-1.921 3.92-1.918-.825.003-3.441.692-5.812 1.531M83 37.5c-1.375.786-2.05 1.429-1.5 1.429.55 0 2.125-.643 3.5-1.429s2.05-1.429 1.5-1.429c-.55 0-2.125.643-3.5 1.429m88 0c1.375.786 2.95 1.429 3.5 1.429.55 0-.125-.643-1.5-1.429s-2.95-1.429-3.5-1.429c-.55 0 .125.643 1.5 1.429m12 5.611c20.857 11.353 33.342 23.745 43.717 43.389 4.894 9.267 5.795 9.441 1.146.221-6.849-13.585-15.585-24.232-27.144-33.086-7.324-5.61-22.279-14.647-24.195-14.621-.563.008 2.351 1.851 6.476 4.097m-111.496.429C54.548 53.75 39.978 69.983 30.251 89.5c-2.193 4.4-4.3 9.125-4.682 10.5-.381 1.375 1.538-2.069 4.266-7.654 11.003-22.524 24.201-36.93 46.76-51.037 1.048-.655 1.654-1.218 1.346-1.25-.307-.033-3.204 1.534-6.437 3.481M231.653 97c.348 1.375 1.25 4.075 2.005 6 1.174 2.995 1.29 3.083.803.61-.313-1.589-1.215-4.289-2.005-6-1.08-2.339-1.279-2.49-.803-.61m3.517 11c.016.825.39 2.625.83 4 .644 2.01.806 2.108.83.5.016-1.1-.357-2.9-.83-4-.527-1.225-.848-1.419-.83-.5m1.988 9c0 1.375.227 1.938.504 1.25.278-.687.278-1.812 0-2.5-.277-.687-.504-.125-.504 1.25m1.094 7.5c.011 2.2.216 2.982.455 1.738.239-1.244.23-3.044-.02-4s-.446.062-.435 2.262m1.068 12.5c0 3.575.182 5.037.403 3.25.222-1.787.222-4.713 0-6.5-.221-1.787-.403-.325-.403 3.25M19.272 148c0 2.475.195 3.488.434 2.25.238-1.238.238-3.262 0-4.5-.239-1.238-.434-.225-.434 2.25m218.98 1.5c.011 2.2.216 2.982.455 1.738.239-1.244.23-3.044-.02-4s-.446.062-.435 2.262m-218.057 6c.02 1.65.244 2.204.498 1.231.254-.973.237-2.323-.037-3-.274-.677-.481.119-.461 1.769m217 1c.02 1.65.244 2.204.498 1.231.254-.973.237-2.323-.037-3-.274-.677-.481.119-.461 1.769m-216.029 4c-.013 2.129 2.565 10.692 2.71 9 .047-.55-.541-3.25-1.306-6s-1.397-4.1-1.404-3m214.913 1.083c.048 1.165.285 1.402.604.605.289-.722.253-1.585-.079-1.917-.332-.332-.568.258-.525 1.312m-1 4c.048 1.165.285 1.402.604.605.289-.722.253-1.585-.079-1.917-.332-.332-.568.258-.525 1.312M25.071 174.23c-.115 1.184 3.143 8.89 3.575 8.457.218-.217-.482-2.374-1.554-4.791-1.073-2.418-1.983-4.068-2.021-3.666m4.355 11.27c1.762 5.365 10.929 18.645 18.256 26.446 9.005 9.586 18.597 16.687 30.818 22.812 7.965 3.992 20.223 8.29 23.355 8.189.905-.029-2.076-1.154-6.623-2.498-26.202-7.747-47.783-24.925-62.055-49.394-2.424-4.155-4.112-6.655-3.751-5.555M167.5 238.642c-3.3 1.326-4.65 2.14-3 1.808 3.107-.625 11.767-4.306 10-4.25-.55.017-3.7 1.116-7 2.442m-8.687 3.041c.721.289 1.584.253 1.916-.079.332-.332-.258-.568-1.312-.525-1.165.048-1.402.285-.604.604m-4 1c.721.289 1.584.253 1.916-.079.332-.332-.258-.568-1.312-.525-1.165.048-1.402.285-.604.604m-50.063.979c.688.278 1.813.278 2.5 0 .688-.277.125-.504-1.25-.504s-1.937.227-1.25.504m45 0c.688.278 1.813.278 2.5 0 .688-.277.125-.504-1.25-.504s-1.937.227-1.25.504m-38.988 1.045c1.244.239 3.044.23 4-.02s-.062-.446-2.262-.435c-2.2.011-2.982.216-1.738.455m32 0c1.244.239 3.044.23 4-.02s-.062-.446-2.262-.435c-2.2.011-2.982.216-1.738.455m-19.512 1.032c3.162.198 8.338.198 11.5 0 3.162-.198.575-.361-5.75-.361s-8.912.163-5.75.361" fill="#1976D2" fill-rule="evenodd"/></svg>