<svg xmlns="http://www.w3.org/2000/svg" width="256" height="256"><path fill-opacity=".016" d="M0 128.004v128.004l128.25-.254 128.25-.254.254-127.75L257.008 0H0v128.004m.485.496c0 70.4.119 99.053.265 63.672.146-35.38.146-92.98 0-128C.604 29.153.485 58.1.485 128.5" fill="#1976D2" fill-rule="evenodd"/><path fill-opacity=".263" d="M119.353 19.774L112.207 33.5l-6.104 1.609c-3.357.884-6.103 1.429-6.103 1.21 0-.219.9-2.163 2-4.319s2-4.213 2-4.571c0-1.051-6.865.53-15.929 3.667-26.557 9.192-48.819 29.558-62.883 57.531-4.633 9.213-8.518 20.031-7.681 21.385.31.501 2.158 1.21 4.108 1.576 4.22.791 4.709 1.737 3.594 6.955-.977 4.568-.394 4.521-13.209 1.06-15.98-4.316-15.854-3.343.702 5.409L23.5 130.72l.3 5.64c.165 3.102.037 5.64-.283 5.64-.321 0-2.819-1.133-5.55-2.517L13 136.966l.006 3.767c.003 2.072.665 8.042 1.47 13.267 5.869 38.084 27.227 68.011 60.276 84.457C90.989 246.538 106.662 250 127 250c14.768 0 26.81-1.863 39.496-6.111C175.237 240.962 193 232.22 193 230.846c0-.375-2.276-1.995-5.058-3.601l-5.057-2.92 3.307-2.483c1.82-1.366 3.885-2.825 4.591-3.242 1.056-.625 36.871 16.696 60.217 29.123 3.869 2.06 4.546 2.173 4.829.807.181-.873-4.738-11.137-10.931-22.809a25810.725 25810.725 0 01-17.49-33.019l-6.231-11.798 2.268-5.574 2.268-5.575 3.217 5.623c1.769 3.092 3.525 5.622 3.902 5.622.912 0 4.734-10.884 6.672-19 2.214-9.269 3.031-29.85 1.591-40.061-2.437-17.288-10.22-37.356-19.56-50.439-5.642-7.903-18.92-20.499-27.316-25.914-9.248-5.964-19.923-11.203-30.985-15.207-12.607-4.564-12.846-4.521-9.663 1.762 2.286 4.51 2.38 5.053.767 4.429-1.011-.392-3.771-1.076-6.134-1.521-2.363-.444-4.613-1.119-5-1.5-.387-.38-3.897-6.599-7.798-13.819-3.902-7.219-7.502-13.252-8-13.405-.499-.153-4.122 5.899-8.053 13.449m-1.227 6.755c-5.252 9.87-8.957 17.936-8.545 18.603.49.791.294.909-.596.358-.96-.593-1.15-.363-.691.834.391 1.019.169 1.561-.58 1.414-.672-.132-1.181.743-1.14 1.962.041 1.21-.283 1.98-.719 1.711-.436-.27-2.558 3.021-4.717 7.314l-3.924 7.804 5.643-.189c3.104-.104 5.868-.276 6.143-.383.275-.107.95-.083 1.5.053 2.889.711 12.168.487 13.25-.321 1.66-1.24 1.577-.222-.276 3.361-.839 1.622-1.298 2.95-1.02 2.95.538 0 4.546-7.51 4.546-8.519 0-.33-.52-.278-1.155.114-.737.456-.882.273-.399-.507.415-.672 1.002-.973 1.305-.67.303.303 1.126-.23 1.829-1.184 1.211-1.645 1.312-1.644 1.953.01.372.96 1.074 1.499 1.56 1.198.486-.3.654.053.373.785-.28.732.2 2.217 1.067 3.302 1.498 1.871 1.516 1.845.358-.529-1.134-2.327-1.097-2.399.543-1.047 2.23 1.84 5.973 2.514 4.972.896-.479-.776-.273-.885.624-.331 2.001 1.237 18.065 1.24 17.602.004-.21-.562-.922-.898-1.581-.747-.66.151-.917-.183-.571-.743.824-1.332-7.428-17.182-8.576-16.473-.485.3-.585-.227-.223-1.171.483-1.256.304-1.497-.666-.898-.876.542-1.085.432-.618-.323.59-.955-7.892-18.217-15.904-32.365l-2.094-3.698-9.273 17.425m-27.844 5.953C62.741 41.773 41.041 61.152 26.994 89 24.41 94.122 19 107.48 19 108.736c0 .135 3.151-1.438 7.002-3.496 3.962-2.116 7.279-4.608 7.64-5.74 6.316-19.826 27.436-44.032 44.979-51.552 5.147-2.206 24.935-19.071 22.212-18.931-.183.01-4.931 1.569-10.551 3.465m64.377-2.223c2.161 3.5 14.21 13.573 21.419 17.906 12.236 7.356 21.631 14.771 30.482 24.057 17.536 18.399 22.539 33.822 22.962 70.778.214 18.654 1.41 33.265 2.841 34.696.471.471 3.958-10.507 5.622-17.696 1.775-7.672 2.374-27.819 1.107-37.281-1.585-11.847-5.309-24.303-10.63-35.553-9.794-20.708-24.471-35.329-47.087-46.907-10.921-5.592-27.923-11.955-26.716-10M101.144 60.75c-1.091 2.55-1.066 2.609.34.809.834-1.068 1.516-2.305 1.516-2.75 0-1.52-.678-.81-1.856 1.941M152 58.941c0 .518.445 1.216.989 1.552.566.35.734-.051.393-.941-.665-1.732-1.382-2.049-1.382-.611M160 72c1.122 2.2 2.266 4 2.541 4 .275 0-.419-1.8-1.541-4-1.122-2.2-2.266-4-2.541-4-.275 0 .419 1.8 1.541 4m-24.436-1.707c.376.986.935 1.541 1.243 1.233.308-.307.001-1.114-.683-1.793-.988-.98-1.102-.865-.56.56M92.5 75c-1.394 2.75-2.309 5-2.034 5 .275 0 1.64-2.25 3.034-5s2.309-5 2.034-5c-.275 0-1.64 2.25-3.034 5m28.064-.293c-.542 1.425-.428 1.54.56.56.684-.679.991-1.486.683-1.793-.308-.308-.867.247-1.243 1.233m45 7.586c.376.986.935 1.541 1.243 1.233.308-.307.001-1.114-.683-1.793-.988-.98-1.102-.865-.56.56m-121.741 49.29c3.478 1.345 6.74 2.187 7.25 1.872.51-.315.927-.158.927.35s1.928 1.659 4.283 2.559c5.247 2.004 7.321 2.011 3.217.012l-3-1.462 2.75.543c1.513.299 3.988.831 5.5 1.184 1.513.352 2.525.399 2.25.105-.573-.614-27.308-7.782-28.63-7.676-.478.038 1.975 1.169 5.453 2.513m24.99 6.1c.721.289 1.584.253 1.916-.079.332-.332-.258-.568-1.312-.525-1.165.048-1.402.285-.604.604m-53.807 4.48c.014 5.483 3.072 21.988 5.53 29.841 9.329 29.809 28.469 51.922 56.744 65.557 14.011 6.757 26.135 9.537 44.363 10.172 22.668.791 39.351-2.343 56.852-10.679 13.272-6.322 13.287-6.643.278-5.976-6.2.317-12.52 1.098-14.044 1.733-7.943 3.312-24.329 5.563-40.229 5.527-17.148-.04-26.159-1.61-39.698-6.916-29.352-11.503-54.425-41.611-57.333-68.849-.682-6.389-1.196-7.542-6.604-14.837-4.547-6.132-5.864-7.384-5.859-5.573" fill="#1976D2" fill-rule="evenodd"/><path fill-opacity=".373" d="M122.695 14.25c-2.457 4.538-5.697 10.725-7.201 13.75-1.504 3.025-2.864 5.646-3.023 5.825-.715.807-12.471 2.751-12.471 2.063 0-.426.956-2.394 2.124-4.374 1.168-1.979 1.881-3.843 1.583-4.14-.987-.988-16.05 3.69-24.239 7.528C57.74 45.084 41.348 60.447 28.68 82.5c-4.786 8.332-10.262 21.201-10.843 25.484-.299 2.208.149 2.588 4.032 3.418l4.37.933-.588 4.968c-.324 2.732-.809 5.189-1.079 5.458-.269.269-5.717-.958-12.105-2.728-6.389-1.769-11.844-2.989-12.123-2.71-.279.279 3.692 2.759 8.825 5.512C25.577 131.636 24 130.188 24 136.453c0 3.051-.213 5.547-.473 5.547-.261 0-2.501-.985-4.978-2.189-2.478-1.203-4.798-1.896-5.155-1.538-.358.358-.098 5.055.576 10.439 3.444 27.469 13.414 49.442 30.458 67.126C60.007 232.001 77.3 241.8 99.703 247.157c8.474 2.027 12.228 2.334 27.797 2.278 18.859-.068 27.846-1.478 41.325-6.485 6.755-2.509 18.975-8.536 22.125-10.912l2.413-1.82-5.182-2.626c-2.849-1.444-5.166-2.956-5.149-3.359.065-1.462 9.391-7.128 10.422-6.331.575.444 14.884 7.865 31.796 16.491 19.898 10.148 30.75 15.18 30.75 14.26 0-.782-3.069-7.211-6.821-14.287a47623.85 47623.85 0 00-17.595-33.142l-10.775-20.277 2.475-6.184 2.474-6.185 3.198 6.334c1.794 3.555 3.573 5.951 4.053 5.461 1.889-1.927 6.125-16.967 7.497-26.622 1.858-13.066 1.859-20.334.007-32.665-5.714-38.042-25.972-66.09-59.93-82.976-11.391-5.664-27.913-11.521-28.416-10.073-.183.528.656 2.559 1.864 4.514 1.209 1.955 1.986 3.765 1.728 4.024-.45.45-12.702-2.111-13.207-2.76-.135-.173-3.494-6.502-7.465-14.065C131.116 12.188 127.709 6 127.515 6c-.194 0-2.363 3.713-4.82 8.25m-6.152 14.551A11311.631 11311.631 0 0198.472 63a5907.107 5907.107 0 00-12.685 24c-3.029 5.775-8.498 16.18-12.155 23.123l-6.648 12.623 11.258 3.096c6.192 1.703 12.311 3.223 13.598 3.377 2.128.256 3.811-2.575 18.563-31.219 8.922-17.325 16.869-32.705 17.66-34.177 1.417-2.639 1.777-2.071 25.352 40 13.154 23.472 25.345 45.152 27.092 48.177 1.747 3.025 7.41 13.135 12.585 22.468 9.236 16.657 9.703 17.279 25.521 34.026 13.74 14.548 16.585 17.096 19.322 17.304 1.981.151 2.968-.146 2.578-.777-.347-.561-.387-1.021-.089-1.021.298 0 1.682 2.25 3.076 5 1.394 2.75 2.781 5 3.084 5 .495 0-2.308-5.484-16.099-31.5-2.333-4.4-16.498-31.175-31.479-59.5-14.982-28.325-28.927-54.65-30.991-58.5-2.063-3.85-11.973-22.525-22.021-41.5S127.66 8.411 127.58 8.301c-.079-.109-5.046 9.116-11.037 20.5M98 29.637l-8 2.551c-25.217 8.039-47.245 27.074-61.368 53.033-5.472 10.058-10.245 22.599-9.021 23.701.489.44 4.584 1.706 9.1 2.814l8.211 2.015 1.665-5.125c7.229-22.247 26.68-45.008 46.826-54.796 4.429-2.152 5.124-3.05 10.498-13.567 3.166-6.195 5.268-11.227 4.672-11.184-.596.043-1.758.295-2.583.558m56-.151c0 .268 1.912 3.983 4.25 8.257 2.338 4.274 4.908 9.042 5.713 10.597.805 1.554 3.505 3.975 6 5.38 14.973 8.429 27.094 19.397 35.118 31.78C216.568 103.226 221 119.417 221 143.652v13.389l5.25 9.849c2.887 5.418 5.66 9.933 6.16 10.035 1.246.253 3.165-5.567 5.693-17.27 2.855-13.215 2.344-37.773-1.044-50.155-5.392-19.709-13.564-34.907-25.4-47.235-12.573-13.096-29.444-23.707-47.989-30.182-9.378-3.274-9.67-3.353-9.67-2.597M25.083 125.4c.23.22 4.804 2.02 10.167 4l19 7.013c5.087 1.877 24.55 9.115 43.25 16.083a26517.06 26517.06 0 0043.25 16.087c5.088 1.879 13.638 5.049 19 7.044 10.131 3.77 23.318 8.373 23.984 8.373.211 0 .059-.526-.339-1.17-.505-.816-.145-.95 1.191-.441 3.678 1.402-.061-1.226-18.597-13.065l-18.51-11.824-14.49-3.867c-7.969-2.127-28.214-7.578-44.989-12.113-57.815-15.63-64.079-17.235-62.917-16.12M15 144.38c0 2.42.707 8.128 1.572 12.686 7.193 37.918 28.393 65.865 61.77 81.426 26.073 12.157 61.294 13.544 89.158 3.512 7.415-2.67 22.5-10.147 22.5-11.153 0-.408-3.937-2.808-8.75-5.334l-8.75-4.594-12.5 2.991c-48.168 11.522-87.571.051-108.589-31.613C44.449 181.812 35 158.511 35 151.833c0-1.297-2.851-3.245-10-6.833l-10-5.018v4.398" fill="#1976D2" fill-rule="evenodd"/><path fill-opacity=".836" d="M126.702 7.333c-.281.734.078 1.334.798 1.334.72 0 1.079-.6.798-1.334C128.016 6.6 127.657 6 127.5 6c-.157 0-.516.6-.798 1.333M123.5 13c-.853 1.65-1.326 3-1.051 3 .275 0 1.198-1.35 2.051-3 .853-1.65 1.326-3 1.051-3-.275 0-1.198 1.35-2.051 3m6.58-1c1.458 3.061 1.92 3.628 1.92 2.358 0-.537-.7-1.849-1.555-2.917-1.467-1.83-1.487-1.798-.365.559m3.42 7c.853 1.65 1.776 3 2.051 3 .275 0-.198-1.35-1.051-3s-1.776-3-2.051-3c-.275 0 .198 1.35 1.051 3m-18.041 9.067c-.363.586-.445 1.281-.183 1.543s.743-.218 1.069-1.067c.676-1.762.1-2.072-.886-.476m-16.646.616c.721.289 1.584.253 1.916-.079.332-.332-.258-.568-1.312-.525-1.165.048-1.402.285-.604.604m40.751 1.61c.376.986.935 1.541 1.243 1.233.308-.307.001-1.114-.683-1.793-.988-.98-1.102-.865-.56.56m-47.751.39c.721.289 1.584.253 1.916-.079.332-.332-.258-.568-1.312-.525-1.165.048-1.402.285-.604.604M154.5 33c.853 1.65 1.776 3 2.051 3 .275 0-.198-1.35-1.051-3s-1.776-3-2.051-3c-.275 0 .198 1.35 1.051 3M87 32c-.825.533-1.05.969-.5.969s1.675-.436 2.5-.969c.825-.533 1.05-.969.5-.969s-1.675.436-2.5.969m13.459.067c-.363.586-.445 1.281-.183 1.543s.743-.218 1.069-1.067c.676-1.762.1-2.072-.886-.476M142.666 36c1.143 1.925 5.123 9.35 8.844 16.5 3.722 7.15 7.544 14.35 8.495 16 .95 1.65 4.551 8.4 8.002 15a3769.04 3769.04 0 0017.985 34 4871.732 4871.732 0 0119.029 36c3.457 6.6 6.619 12.45 7.026 13 .407.55 2.835 5.162 5.396 10.25 4.669 9.273 6.317 11.724 4.31 6.406-.883-2.34-.654-3.855 1.293-8.553l2.366-5.709 1.868 2.303c1.027 1.267-.036-1.276-2.363-5.651l-4.231-7.953.217-11.593c.58-31.044-9.625-57.232-29.674-76.145-7.767-7.328-13.264-11.336-20.729-15.12-4.356-2.207-5.502-3.489-8.898-9.945l-3.898-7.411-7.102-1.298c-3.906-.715-7.757-1.813-8.558-2.44-.88-.69-.634.244.622 2.359M107 35.601c-6.92 1.654-8.304 1.699-7.405.244.393-.634.305-.901-.195-.592-.5.309-2.674 4.182-4.831 8.606-3.019 6.191-4.609 8.329-6.903 9.279-6.135 2.541-17.905 11.059-24.997 18.091-10.63 10.537-19.009 23.763-23.228 36.662-.95 2.905-2.32 5.509-3.043 5.787-.724.277-2.939-.032-4.924-.687-1.984-.654-3.802-.996-4.04-.758-.237.237-.835 2.588-1.327 5.225-.493 2.636-1.506 5.18-2.251 5.652-.746.473-.987.866-.536.875.712.013 15.15 3.829 55.18 14.586 9.488 2.55 23.509 6.288 39 10.399 3.85 1.021 11.437 3.046 16.861 4.5 5.423 1.453 10.057 2.445 10.298 2.205.343-.344-15.946-30.277-17.127-31.472-.161-.164-1.774 2.649-3.583 6.25-1.81 3.601-3.732 6.547-4.272 6.547-.539 0-6.875-1.579-14.079-3.509a7147.556 7147.556 0 00-25.098-6.668c-6.6-1.737-12.382-3.488-12.85-3.891-.467-.402 2.183-6.464 5.889-13.47 21.055-39.797 39.376-74.872 39.183-75.014-.122-.089-2.697.43-5.722 1.153m68.441.844c1.068.855 2.38 1.555 2.917 1.555 1.27 0 .703-.462-2.358-1.92-2.357-1.122-2.389-1.102-.559.365M182 39.449c0 .275 1.35 1.198 3 2.051 1.65.853 3 1.326 3 1.051 0-.275-1.35-1.198-3-2.051-1.65-.853-3-1.326-3-1.051M64.487 43.36c-2.743 1.847-7.237 5.478-9.987 8.067-4.855 4.572-4.811 4.554 1.5-.629 3.575-2.935 8.188-6.377 10.25-7.649C69.46 41.17 70.755 40 69.737 40c-.145 0-2.508 1.512-5.25 3.36M197 48.378c0 .207.787.995 1.75 1.75 1.586 1.243 1.621 1.208.378-.378-1.307-1.666-2.128-2.195-2.128-1.372M202.5 53c.995 1.1 2.035 2 2.31 2 .275 0-.315-.9-1.31-2-.995-1.1-2.035-2-2.31-2-.275 0 .315.9 1.31 2m9.972 9.25c3.236 3.713 6.07 6.75 6.299 6.75.662 0-7.313-9.297-9.865-11.5-1.274-1.1.331 1.038 3.566 4.75m-168.552-.5C39.266 66.757 36.594 70 37.123 70c.237 0 2.809-2.7 5.714-6 5.835-6.629 6.567-8.15 1.083-2.25M219 70.378c0 .207.787.995 1.75 1.75 1.586 1.243 1.621 1.208.378-.378-1.307-1.666-2.128-2.195-2.128-1.372M35.278 72.25C33.779 74.188 32.836 76 33.326 76c.244 0 1.181-1.125 2.082-2.5 1.686-2.573 1.592-3.476-.13-1.25M20.624 99.539c-.965 2.514-.681 3.163.498 1.136.584-1.004.851-2.036.593-2.293-.257-.258-.749.263-1.091 1.157M234.086 98.5c.104 1.894 1.77 5.084 1.828 3.5.031-.825-.381-2.175-.914-3-.533-.825-.945-1.05-.914-.5m3.993 14.083c.048 1.165.285 1.402.604.605.289-.722.253-1.585-.079-1.917-.332-.332-.568.258-.525 1.312M.083 117.402c1.095 1.056 19.284 10.564 19.602 10.246.2-.2-2.685-1.989-6.411-3.977-3.726-1.987-6.099-3.656-5.274-3.709.825-.053-.525-.734-3-1.514-4.814-1.517-5.572-1.678-4.917-1.046m11.417 3.463c1.1.482 3.575 1.161 5.5 1.51 2.403.436 2.873.36 1.5-.24-1.1-.482-3.575-1.161-5.5-1.51-2.403-.436-2.873-.36-1.5.24m228.752 5.635c.011 2.2.216 2.982.455 1.738.239-1.244.23-3.044-.02-4s-.446.062-.435 2.262M22.25 129.289c1.323 1.082 1.75 2.937 1.75 7.597v6.165l-3-1.551c-1.65-.853-3-1.328-3-1.056 0 .273 3.789 2.383 8.419 4.689 7.769 3.868 8.471 4.47 9.09 7.78 2.08 11.117 10.13 30.334 16.734 39.947 22.015 32.043 65.016 43.182 112.952 29.257l6.695-1.944 6.805 3.485c3.743 1.918 6.003 2.831 5.023 2.031-1.657-1.354-1.428-1.71 3.289-5.099l5.071-3.643 10.677 5.477c5.872 3.013 10.853 5.301 11.069 5.085.216-.216-10.814-5.999-24.51-12.852-13.697-6.853-27.359-13.786-30.359-15.407-11.284-6.097-56.096-28.439-56.364-28.102-.153.194-2.663 4.852-5.578 10.352-8.458 15.958-12.24 22.971-12.622 23.399-.803.901-8.973-5.73-14.731-11.957-7.159-7.742-13.776-18.823-17.313-28.994l-2.491-7.164 2.212-5.452c1.264-3.113 1.831-5.795 1.322-6.252-.489-.44-8.09-4.495-16.89-9.011-8.8-4.516-15.212-7.567-14.25-6.78M14.195 147.5c.02 1.65.244 2.204.498 1.231.254-.973.237-2.323-.037-3-.274-.677-.481.119-.461 1.769m226.037.5c0 1.925.206 2.713.457 1.75.252-.963.252-2.537 0-3.5-.251-.963-.457-.175-.457 1.75m-225.037 7.5c.02 1.65.244 2.204.498 1.231.254-.973.237-2.323-.037-3-.274-.677-.481.119-.461 1.769m3.884 17.083c.048 1.165.285 1.402.604.605.289-.722.253-1.585-.079-1.917-.332-.332-.568.258-.525 1.312m212.534 6.6c.289.467.944.591 1.456.274 1.308-.808 1.161-1.124-.525-1.124-.801 0-1.22.383-.931.85M24 185.941c0 .518.445 1.216.989 1.552.566.35.734-.051.393-.941-.665-1.732-1.382-2.049-1.382-.611m2 4c0 .518.445 1.216.989 1.552.566.35.734-.051.393-.941-.665-1.732-1.382-2.049-1.382-.611M227 195c1.122 2.2 2.266 4 2.541 4 .275 0-.419-1.8-1.541-4-1.122-2.2-2.266-4-2.541-4-.275 0 .419 1.8 1.541 4m-193 8.378c0 .207.788.995 1.75 1.75 1.586 1.243 1.621 1.208.378-.378-1.307-1.666-2.128-2.195-2.128-1.372m198.564 1.915c.376.986.935 1.541 1.243 1.233.308-.307.001-1.114-.683-1.793-.988-.98-1.102-.865-.56.56M37 207.378c0 .207.788.995 1.75 1.75 1.586 1.243 1.621 1.208.378-.378-1.307-1.666-2.128-2.195-2.128-1.372M236.5 213c1.394 2.75 2.759 5 3.034 5 .275 0-.64-2.25-2.034-5-1.394-2.75-2.759-5-3.034-5-.275 0 .64 2.25 2.034 5m-191 4c3.266 3.3 6.162 6 6.437 6 .275 0-2.171-2.7-5.437-6-3.266-3.3-6.162-6-6.437-6-.275 0 2.171 2.7 5.437 6m194.682 2.5c.757 2.265 7.881 15.5 8.343 15.5.562 0-5.825-12.674-7.559-15-.615-.825-.968-1.05-.784-.5M54.5 225c.995 1.1 2.035 2 2.31 2 .275 0-.315-.9-1.31-2-.995-1.1-2.035-2-2.31-2-.275 0 .315.9 1.31 2m3.5 2.364c0 .275 1.35 1.461 3 2.636s3 1.911 3 1.636c0-.275-1.35-1.461-3-2.636s-3-1.911-3-1.636m131.215 1.916c1.306 1.058 1.437 1.668.55 2.555-.641.641-.905 1.165-.587 1.165.317 0 1.111-.644 1.764-1.43.955-1.151.735-1.65-1.127-2.555-2.051-.997-2.119-.967-.6.265m25.785-.885c0 .525 9.748 5.608 10.732 5.596.422-.006-1.579-1.356-4.447-3-5.074-2.911-6.285-3.411-6.285-2.596m-150 4.054c0 .275 1.35 1.198 3 2.051 1.65.853 3 1.326 3 1.051 0-.275-1.35-1.198-3-2.051-1.65-.853-3-1.326-3-1.051m117.75 3.123c-3.738 2.028-3.511 2.873.25.928 1.65-.853 3-1.765 3-2.026 0-.643-.107-.607-3.25 1.098m44.25-1.086c0 .78 28.155 14.693 28.676 14.171.525-.524-3.442-8.657-4.222-8.657-.278 0 .214 1.392 1.094 3.093.88 1.701 1.389 3.303 1.132 3.56-.257.257-6.365-2.488-13.574-6.1-7.208-3.612-13.106-6.342-13.106-6.067M98.813 246.683c.721.289 1.584.253 1.916-.079.332-.332-.258-.568-1.312-.525-1.165.048-1.402.285-.604.604m55 0c.721.289 1.584.253 1.916-.079.332-.332-.258-.568-1.312-.525-1.165.048-1.402.285-.604.604m-44 2c.721.289 1.584.253 1.916-.079.332-.332-.258-.568-1.312-.525-1.165.048-1.402.285-.604.604m33 0c.721.289 1.584.253 1.916-.079.332-.332-.258-.568-1.312-.525-1.165.048-1.402.285-.604.604m-20.063 1.049c2.337.211 6.162.211 8.5 0 2.338-.21.425-.383-4.25-.383s-6.588.173-4.25.383" fill="#1976D2" fill-rule="evenodd"/></svg>